# Blender 4.3.2
# www.blender.org
mtllib bean.mtl
o Sphere
v -0.000000 1.241854 -0.560777
v 0.047151 -0.639771 -0.866076
v -0.000000 -1.282137 -0.508162
v 0.399420 0.853107 -0.022528
v 0.570896 0.483460 -0.305711
v 0.570896 -0.385002 -0.310536
v 0.406418 -0.832735 -0.004847
v -0.000000 0.616075 0.466172
v -0.000000 0.259279 0.299622
v -0.000000 -0.103816 0.273798
v -0.000000 -0.505096 0.474492
v -0.000000 -1.092015 0.367108
v 0.008530 1.169341 0.250096
v -0.399420 0.853107 -0.022528
v -0.570896 0.483460 -0.305711
v -0.570896 -0.385002 -0.310536
v -0.406418 -0.832735 -0.004847
v 0.047151 0.649315 -0.891637
vn 0.6330 -0.7565 0.1643
vn 0.7370 -0.0065 -0.6758
vn 0.6530 0.7549 0.0606
vn 0.8023 -0.4163 -0.4279
vn 0.7863 0.4493 -0.4241
vn 0.7764 0.2051 0.5960
vn 0.7730 -0.1919 0.6047
vn 0.7124 -0.1263 0.6903
vn 0.7210 -0.0172 0.6928
vn 0.6838 0.2563 0.6832
vn -0.7764 0.2051 0.5960
vn -0.7730 -0.1919 0.6047
vn -0.7124 -0.1263 0.6903
vn -0.7210 -0.0172 0.6928
vn -0.6733 0.2780 0.6851
vn -0.7779 -0.3857 -0.4961
vn -0.7673 0.4125 -0.4910
vn -0.6330 -0.7565 0.1643
vn -0.6787 -0.0071 -0.7344
vn -0.6418 0.7632 0.0750
vt 0.625000 0.000000
vt 0.750000 0.200000
vt 0.500000 0.200000
vt 0.750000 0.400000
vt 0.750000 0.600000
vt 0.500000 0.600000
vt 0.500000 0.400000
vt 0.750000 0.800000
vt 0.625000 1.000000
vt 0.500000 0.800000
vt 0.250000 0.400000
vt 0.250000 0.200000
vt 0.250000 0.800000
vt 0.250000 0.600000
vt 0.375000 0.000000
vt 0.375000 1.000000
vt 0.000000 0.400000
vt 0.000000 0.200000
vt 0.000000 0.800000
vt 0.000000 0.600000
vt 0.125000 0.000000
vt 0.125000 1.000000
vt 1.000000 0.200000
vt 1.000000 0.400000
vt 1.000000 0.600000
vt 1.000000 0.800000
vt 0.875000 0.000000
vt 0.875000 1.000000
s 0
f 12/1/1 3/2/1 7/3/1
f 2/4/2 18/5/2 5/6/2 6/7/2
f 1/8/3 13/9/3 4/10/3
f 3/2/4 2/4/4 6/7/4 7/3/4
f 18/5/5 1/8/5 4/10/5 5/6/5
f 7/3/6 6/7/6 10/11/6 11/12/6
f 5/6/7 4/10/7 8/13/7 9/14/7
f 12/15/8 7/3/8 11/12/8
f 6/7/9 5/6/9 9/14/9 10/11/9
f 4/10/10 13/16/10 8/13/10
f 11/12/11 10/11/11 16/17/11 17/18/11
f 9/14/12 8/13/12 14/19/12 15/20/12
f 12/21/13 11/12/13 17/18/13
f 10/11/14 9/14/14 15/20/14 16/17/14
f 8/13/15 13/22/15 14/19/15
f 17/23/16 16/24/16 2/4/16 3/2/16
f 15/25/17 14/26/17 1/8/17 18/5/17
f 12/27/18 17/23/18 3/2/18
f 16/24/19 15/25/19 18/5/19 2/4/19
f 14/26/20 13/28/20 1/8/20
l 4 14
